<?xml version="1.0" standalone="no"?>
<!DOCTYPE svg PUBLIC "-//W3C//DTD SVG 20010904//EN"
 "http://www.w3.org/TR/2001/REC-SVG-20010904/DTD/svg10.dtd">
<svg version="1.0" xmlns="http://www.w3.org/2000/svg"
 width="2304.000000pt" height="2304.000000pt" viewBox="0 0 2304.000000 2304.000000"
 preserveAspectRatio="xMidYMid meet">
<metadata>
Created by potrace 1.11, written by Peter Selinger 2001-2013
</metadata>
<g transform="translate(0.000000,2304.000000) scale(0.100000,-0.100000)"
fill="#000000" stroke="none">
<path d="M11139 23015 c-2 -1 -76 -6 -164 -9 -88 -4 -185 -9 -215 -11 -30 -3
-86 -7 -125 -10 -38 -3 -95 -8 -126 -10 -80 -6 -231 -21 -309 -31 -25 -3 -58
-7 -75 -9 -16 -2 -66 -9 -110 -15 -110 -15 -132 -18 -190 -25 -27 -3 -63 -9
-80 -12 -16 -4 -32 -7 -35 -8 -3 -1 -30 -5 -60 -9 -30 -4 -62 -9 -70 -11 -8
-1 -33 -6 -55 -9 -22 -4 -47 -8 -55 -11 -8 -2 -33 -6 -55 -10 -22 -3 -71 -12
-110 -20 -38 -8 -81 -16 -95 -19 -226 -44 -671 -155 -915 -227 -813 -241
-1531 -538 -2285 -947 -351 -190 -824 -487 -1166 -732 -125 -90 -447 -333
-470 -354 -6 -6 -28 -24 -50 -41 -66 -52 -287 -236 -329 -274 -22 -20 -63 -56
-90 -80 -57 -50 -208 -188 -269 -244 -117 -110 -373 -368 -562 -568 -114 -121
-367 -414 -508 -589 -317 -396 -564 -744 -826 -1170 -56 -91 -111 -177 -121
-192 -11 -15 -19 -29 -19 -31 0 -3 -28 -53 -63 -113 -35 -60 -87 -154 -117
-209 -29 -55 -56 -104 -60 -110 -10 -14 -199 -392 -245 -490 -20 -44 -50 -107
-65 -140 -15 -33 -49 -109 -75 -170 -26 -60 -53 -123 -61 -140 -78 -176 -317
-820 -339 -915 -2 -8 -19 -64 -39 -125 -41 -130 -106 -356 -136 -475 -12 -47
-24 -92 -26 -100 -8 -30 -64 -259 -69 -282 -13 -62 -55 -256 -59 -278 -3 -14
-8 -38 -11 -55 -3 -16 -12 -66 -20 -110 -8 -44 -20 -102 -25 -130 -10 -54 -15
-85 -25 -155 -3 -25 -12 -85 -20 -135 -19 -126 -23 -152 -30 -220 -4 -33 -8
-71 -10 -84 -10 -62 -18 -129 -30 -266 -4 -38 -8 -83 -10 -100 -2 -16 -6 -70
-10 -120 -3 -49 -8 -110 -10 -135 -20 -258 -27 -1072 -12 -1345 21 -366 40
-577 81 -900 16 -119 19 -142 21 -155 1 -8 6 -40 10 -70 4 -30 9 -64 11 -75 2
-11 7 -40 10 -65 3 -25 7 -52 9 -60 2 -8 7 -31 10 -50 5 -32 33 -184 40 -220
43 -216 58 -290 76 -365 11 -49 27 -117 34 -151 16 -71 92 -366 105 -409 5
-16 21 -70 36 -120 71 -248 216 -679 304 -905 12 -30 32 -82 44 -115 43 -112
137 -334 188 -445 16 -36 37 -82 46 -104 23 -57 294 -598 346 -691 25 -44 48
-87 52 -95 22 -47 215 -374 323 -545 183 -292 375 -570 571 -829 83 -109 356
-451 400 -500 15 -17 65 -74 110 -126 267 -306 611 -659 914 -934 130 -119
228 -205 286 -252 19 -16 44 -37 55 -48 87 -81 601 -477 760 -587 28 -19 52
-37 55 -40 19 -23 584 -389 601 -389 5 0 9 -4 9 -10 0 -5 4 -10 9 -10 5 0 45
-22 88 -48 119 -73 351 -204 513 -289 356 -188 702 -349 1050 -489 102 -41
194 -78 205 -83 11 -5 36 -14 55 -21 19 -7 44 -16 55 -21 70 -30 472 -166 655
-221 175 -53 454 -130 520 -144 14 -2 34 -8 45 -11 11 -4 25 -8 30 -9 6 -1 78
-18 160 -37 83 -20 164 -38 180 -41 17 -3 62 -12 100 -21 83 -18 94 -20 205
-40 85 -15 115 -21 168 -30 31 -6 128 -21 187 -30 22 -3 65 -10 95 -15 30 -5
82 -12 115 -15 33 -3 67 -7 75 -10 8 -2 38 -6 65 -9 28 -3 68 -8 90 -10 41 -5
114 -13 195 -21 25 -2 68 -7 95 -9 53 -6 190 -16 265 -21 433 -27 1176 -27
1530 0 19 1 82 6 140 10 58 3 119 8 135 10 17 2 59 6 95 10 36 3 101 10 145
15 44 5 105 12 135 15 30 3 66 7 80 10 14 2 41 6 60 9 65 8 195 27 225 33 34
5 47 7 125 18 30 4 57 8 60 10 3 2 24 6 46 9 22 4 51 9 64 11 14 3 39 8 55 10
154 27 649 138 765 171 30 9 62 17 70 19 8 2 35 9 60 16 25 7 50 13 55 15 50
12 472 138 505 151 8 3 20 7 25 9 28 7 287 98 405 142 698 259 1429 617 2035
996 71 44 134 83 139 85 6 2 15 8 21 13 5 5 84 58 175 119 91 60 194 130 230
155 102 72 274 197 280 204 3 3 21 17 40 30 31 22 285 220 335 262 11 9 70 58
130 108 104 87 193 164 295 256 25 22 61 55 80 72 207 185 611 595 820 832 36
41 76 86 90 101 44 48 215 253 336 404 68 84 284 370 334 441 138 197 251 363
316 464 278 430 565 945 742 1330 16 36 48 104 71 152 86 186 232 539 313 758
11 30 24 64 30 75 5 12 10 27 11 35 2 8 5 20 9 25 3 6 42 120 86 255 122 373
243 805 288 1025 7 34 12 58 28 125 8 36 17 76 20 90 3 14 7 36 10 50 3 14 10
50 16 80 12 67 17 90 30 155 5 28 12 68 16 90 3 22 7 47 9 55 9 31 68 437 79
540 3 25 8 65 11 90 3 25 8 63 10 85 2 22 6 69 10 105 3 36 8 83 10 105 2 22
7 81 10 130 4 50 8 110 10 135 27 290 27 1185 0 1520 -2 30 -6 89 -10 130 -10
142 -15 205 -20 235 -2 17 -7 68 -11 115 -3 47 -8 87 -9 90 -2 3 -6 33 -10 65
-3 33 -8 76 -11 95 -3 19 -12 85 -20 145 -8 61 -17 121 -19 135 -3 14 -8 45
-11 70 -3 25 -8 54 -10 65 -3 18 -14 78 -28 155 -2 14 -12 66 -21 115 -10 50
-19 100 -21 112 -22 117 -117 515 -178 743 -3 8 -9 33 -14 55 -9 36 -22 83
-82 280 -54 179 -117 366 -225 664 -37 104 -186 471 -241 594 -120 268 -248
533 -363 750 -62 118 -180 329 -209 377 -12 19 -25 42 -29 50 -12 27 -194 322
-269 438 -41 62 -74 117 -74 122 0 4 -4 10 -8 12 -4 2 -48 62 -97 133 -151
221 -368 514 -515 695 -186 230 -342 410 -515 599 -170 184 -480 495 -620 622
-33 30 -67 61 -75 70 -17 17 -90 83 -194 174 -38 33 -74 65 -80 70 -145 131
-614 498 -814 637 -18 13 -39 28 -46 34 -32 29 -561 374 -716 466 -462 277
-945 523 -1407 719 -54 22 -111 47 -128 54 -47 21 -365 145 -371 145 -3 0 -20
6 -37 14 -47 21 -529 185 -558 190 -8 1 -54 15 -104 30 -263 82 -790 214
-1035 260 -14 3 -74 14 -135 26 -60 11 -148 27 -195 35 -47 7 -103 17 -125 20
-49 8 -46 8 -225 34 -80 11 -172 23 -205 26 -33 3 -67 8 -75 10 -8 2 -51 7
-95 11 -44 3 -88 8 -99 10 -10 2 -58 6 -106 9 -48 3 -95 7 -106 9 -10 2 -77 7
-149 11 -71 4 -152 9 -180 11 -62 6 -972 14 -976 9z"/>
</g>
</svg>
